<svg xmlns="http://www.w3.org/2000/svg" xmlns:xlink="http://www.w3.org/1999/xlink" viewBox="0,0,256,256" width="50px" height="50px" fill-rule="nonzero"><g fill="#080909" fill-rule="nonzero" stroke="none" stroke-width="1" stroke-linecap="butt" stroke-linejoin="miter" stroke-miterlimit="10" stroke-dasharray="" stroke-dashoffset="0" font-family="none" font-weight="none" font-size="none" text-anchor="none" style="mix-blend-mode: normal"><g transform="scale(5.33333,5.33333)"><path d="M19.78,31.91c0.5,-0.99 0.11,-2.19 -0.87,-2.69l-3.09,-1.57c0.63,-0.41 1.38,-0.65 2.18,-0.65c2.21,0 4,1.79 4,4c0,2.21 -1.79,4 -4,4c-2.14,0 -3.88,-1.68 -3.99,-3.79l3.08,1.57c0.29,0.15 0.6,0.22 0.91,0.22c0.73,0 1.43,-0.4 1.78,-1.09z"></path><path d="M29,13c-3.31,0 -6,2.69 -6,6c0,3.31 2.69,6 6,6c3.31,0 6,-2.69 6,-6c0,-3.31 -2.69,-6 -6,-6zM29,23c-2.21,0 -4,-1.79 -4,-4c0,-2.21 1.79,-4 4,-4c2.21,0 4,1.79 4,4c0,2.21 -1.79,4 -4,4z"></path><path d="M44,24c0,11.05 -8.95,20 -20,20c-10.31,0 -18.79,-7.79 -19.88,-17.81l7.94,4.03c-0.04,0.26 -0.06,0.52 -0.06,0.78c0,3.31 2.69,6 6,6c3.31,0 6,-2.69 6,-6c0,-0.17 -0.01,-0.33 -0.03,-0.5c0.43,-0.26 0.88,-0.54 1.36,-0.83c1.39,-0.83 2.92,-1.77 4.15,-2.69c4.19,-0.25 7.52,-3.72 7.52,-7.98c0,-4.42 -3.58,-8 -8,-8c-4.42,0 -8,3.58 -8,8c0,0.09 0.01,0.18 0.01,0.28c-0.82,1.14 -1.63,2.48 -2.36,3.7c-0.47,0.77 -0.91,1.5 -1.28,2.05c-1.36,0.14 -2.57,0.74 -3.51,1.63l-9.73,-4.95c1.14,-9.97 9.6,-17.71 19.87,-17.71c11.05,0 20,8.95 20,20z"></path></g></g></svg>